STARTFONT 2.1
FONT -Sun-Screen-Medium-R-Normal--16-160-72-72-M-90-ISO8859-1
SIZE 16 72 72
FONTBOUNDINGBOX 9 17 0 -5

STARTPROPERTIES 21
FONTNAME_REGISTRY ""
FOUNDRY "Sun"
FAMILY_NAME "Screen"
WEIGHT_NAME "Medium"
SLANT "R"
SETWIDTH_NAME "Normal"
ADD_STYLE_NAME ""
PIXEL_SIZE 16
POINT_SIZE 160
RESOLUTION_X 72
RESOLUTION_Y 72
SPACING "M"
AVERAGE_WIDTH 90
CHARSET_REGISTRY "ISO8859"
CHARSET_ENCODING "1"
WEIGHT 10
X_HEIGHT -1
QUAD_WIDTH 9
DEFAULT_CHAR 32
FONT_DESCENT 5
FONT_ASCENT 12
ENDPROPERTIES

CHARS 191

STARTCHAR <unknown>
ENCODING 32
SWIDTH 42 0
DWIDTH 9 0
BBX 9 17 0 -5
BITMAP
0000
0000
0000
0000
0000
0000
0000
0000
0000
0000
0000
0000
0000
0000
0000
0000
0000
ENDCHAR

STARTCHAR <unknown>
ENCODING 33
SWIDTH 42 0
DWIDTH 9 0
BBX 9 17 0 -5
BITMAP
0000
0800
0800
0800
0800
0800
0800
0800
0800
0000
0000
0800
0800
0000
0000
0000
0000
ENDCHAR

STARTCHAR <unknown>
ENCODING 34
SWIDTH 42 0
DWIDTH 9 0
BBX 9 17 0 -5
BITMAP
0000
1200
1200
1200
1200
0000
0000
0000
0000
0000
0000
0000
0000
0000
0000
0000
0000
ENDCHAR

STARTCHAR <unknown>
ENCODING 35
SWIDTH 42 0
DWIDTH 9 0
BBX 9 17 0 -5
BITMAP
0000
0000
1200
1200
1200
7F80
1200
1200
1200
7F80
1200
1200
1200
0000
0000
0000
0000
ENDCHAR

STARTCHAR <unknown>
ENCODING 36
SWIDTH 42 0
DWIDTH 9 0
BBX 9 17 0 -5
BITMAP
0000
0800
0800
3E00
4900
4900
4800
3800
0E00
0900
4900
4900
3E00
0800
0800
0000
0000
ENDCHAR

STARTCHAR <unknown>
ENCODING 37
SWIDTH 42 0
DWIDTH 9 0
BBX 9 17 0 -5
BITMAP
0000
3000
4800
4800
4900
3200
0400
0800
1000
2600
4900
0900
0900
0600
0000
0000
0000
ENDCHAR

STARTCHAR <unknown>
ENCODING 38
SWIDTH 42 0
DWIDTH 9 0
BBX 9 17 0 -5
BITMAP
0000
0000
1800
2400
2400
2800
1000
2900
4600
4200
4200
4500
3880
0000
0000
0000
0000
ENDCHAR

STARTCHAR <unknown>
ENCODING 39
SWIDTH 42 0
DWIDTH 9 0
BBX 9 17 0 -5
BITMAP
0000
0400
0400
0800
1000
0000
0000
0000
0000
0000
0000
0000
0000
0000
0000
0000
0000
ENDCHAR

STARTCHAR <unknown>
ENCODING 40
SWIDTH 42 0
DWIDTH 9 0
BBX 9 17 0 -5
BITMAP
0000
0200
0400
0800
0800
1000
1000
1000
1000
1000
1000
0800
0800
0400
0200
0000
0000
ENDCHAR

STARTCHAR <unknown>
ENCODING 41
SWIDTH 42 0
DWIDTH 9 0
BBX 9 17 0 -5
BITMAP
0000
1000
0800
0400
0400
0200
0200
0200
0200
0200
0200
0400
0400
0800
1000
0000
0000
ENDCHAR

STARTCHAR <unknown>
ENCODING 42
SWIDTH 42 0
DWIDTH 9 0
BBX 9 17 0 -5
BITMAP
0000
0000
0000
0800
4900
2A00
1C00
1C00
2A00
4900
0800
0000
0000
0000
0000
0000
0000
ENDCHAR

STARTCHAR <unknown>
ENCODING 43
SWIDTH 42 0
DWIDTH 9 0
BBX 9 17 0 -5
BITMAP
0000
0000
0000
0000
0800
0800
0800
7F00
0800
0800
0800
0000
0000
0000
0000
0000
0000
ENDCHAR

STARTCHAR <unknown>
ENCODING 44
SWIDTH 42 0
DWIDTH 9 0
BBX 9 17 0 -5
BITMAP
0000
0000
0000
0000
0000
0000
0000
0000
0000
0000
0000
0C00
0C00
0400
0800
1000
0000
ENDCHAR

STARTCHAR <unknown>
ENCODING 45
SWIDTH 42 0
DWIDTH 9 0
BBX 9 17 0 -5
BITMAP
0000
0000
0000
0000
0000
0000
0000
7F00
0000
0000
0000
0000
0000
0000
0000
0000
0000
ENDCHAR

STARTCHAR <unknown>
ENCODING 46
SWIDTH 42 0
DWIDTH 9 0
BBX 9 17 0 -5
BITMAP
0000
0000
0000
0000
0000
0000
0000
0000
0000
0000
0000
0C00
0C00
0000
0000
0000
0000
ENDCHAR

STARTCHAR <unknown>
ENCODING 47
SWIDTH 42 0
DWIDTH 9 0
BBX 9 17 0 -5
BITMAP
0000
0100
0200
0200
0400
0400
0800
0800
1000
1000
2000
2000
4000
4000
0000
0000
0000
ENDCHAR

STARTCHAR <unknown>
ENCODING 48
SWIDTH 42 0
DWIDTH 9 0
BBX 9 17 0 -5
BITMAP
0000
0000
1E00
2100
2100
2100
2100
2100
2100
2100
2100
2100
1E00
0000
0000
0000
0000
ENDCHAR

STARTCHAR <unknown>
ENCODING 49
SWIDTH 42 0
DWIDTH 9 0
BBX 9 17 0 -5
BITMAP
0000
0000
0800
1800
2800
0800
0800
0800
0800
0800
0800
0800
3E00
0000
0000
0000
0000
ENDCHAR

STARTCHAR <unknown>
ENCODING 50
SWIDTH 42 0
DWIDTH 9 0
BBX 9 17 0 -5
BITMAP
0000
0000
1E00
2100
2100
0100
0200
0400
0800
1000
2000
4000
7F00
0000
0000
0000
0000
ENDCHAR

STARTCHAR <unknown>
ENCODING 51
SWIDTH 42 0
DWIDTH 9 0
BBX 9 17 0 -5
BITMAP
0000
0000
1E00
2100
2100
0100
0100
0E00
0100
0100
4100
4100
3E00
0000
0000
0000
0000
ENDCHAR

STARTCHAR <unknown>
ENCODING 52
SWIDTH 42 0
DWIDTH 9 0
BBX 9 17 0 -5
BITMAP
0000
0000
0200
0600
0A00
1200
2200
4200
4200
7F00
0200
0200
0200
0000
0000
0000
0000
ENDCHAR

STARTCHAR <unknown>
ENCODING 53
SWIDTH 42 0
DWIDTH 9 0
BBX 9 17 0 -5
BITMAP
0000
0000
3F00
2000
2000
2000
3E00
0100
0100
0100
4100
4200
3C00
0000
0000
0000
0000
ENDCHAR

STARTCHAR <unknown>
ENCODING 54
SWIDTH 42 0
DWIDTH 9 0
BBX 9 17 0 -5
BITMAP
0000
0000
1C00
2200
4000
4000
5C00
6200
4100
4100
4100
2200
1C00
0000
0000
0000
0000
ENDCHAR

STARTCHAR <unknown>
ENCODING 55
SWIDTH 42 0
DWIDTH 9 0
BBX 9 17 0 -5
BITMAP
0000
0000
7F00
4100
0100
0200
0200
0400
0400
0400
0800
0800
0800
0000
0000
0000
0000
ENDCHAR

STARTCHAR <unknown>
ENCODING 56
SWIDTH 42 0
DWIDTH 9 0
BBX 9 17 0 -5
BITMAP
0000
0000
1C00
2200
2200
2200
1C00
2200
4100
4100
4100
2200
1C00
0000
0000
0000
0000
ENDCHAR

STARTCHAR <unknown>
ENCODING 57
SWIDTH 42 0
DWIDTH 9 0
BBX 9 17 0 -5
BITMAP
0000
0000
1C00
2200
4100
4100
4100
2300
1D00
0100
0100
2200
1C00
0000
0000
0000
0000
ENDCHAR

STARTCHAR <unknown>
ENCODING 58
SWIDTH 42 0
DWIDTH 9 0
BBX 9 17 0 -5
BITMAP
0000
0000
0000
0000
0000
0C00
0C00
0000
0000
0000
0000
0C00
0C00
0000
0000
0000
0000
ENDCHAR

STARTCHAR <unknown>
ENCODING 59
SWIDTH 42 0
DWIDTH 9 0
BBX 9 17 0 -5
BITMAP
0000
0000
0000
0000
0000
0C00
0C00
0000
0000
0000
0000
0C00
0C00
0400
0800
1000
0000
ENDCHAR

STARTCHAR <unknown>
ENCODING 60
SWIDTH 42 0
DWIDTH 9 0
BBX 9 17 0 -5
BITMAP
0000
0000
0100
0200
0400
0800
1000
2000
1000
0800
0400
0200
0100
0000
0000
0000
0000
ENDCHAR

STARTCHAR <unknown>
ENCODING 61
SWIDTH 42 0
DWIDTH 9 0
BBX 9 17 0 -5
BITMAP
0000
0000
0000
0000
0000
0000
7F00
0000
7F00
0000
0000
0000
0000
0000
0000
0000
0000
ENDCHAR

STARTCHAR <unknown>
ENCODING 62
SWIDTH 42 0
DWIDTH 9 0
BBX 9 17 0 -5
BITMAP
0000
0000
2000
1000
0800
0400
0200
0100
0200
0400
0800
1000
2000
0000
0000
0000
0000
ENDCHAR

STARTCHAR <unknown>
ENCODING 63
SWIDTH 42 0
DWIDTH 9 0
BBX 9 17 0 -5
BITMAP
0000
1C00
2200
4100
0100
0200
0400
0800
0800
0000
0000
0800
0800
0000
0000
0000
0000
ENDCHAR

STARTCHAR <unknown>
ENCODING 64
SWIDTH 42 0
DWIDTH 9 0
BBX 9 17 0 -5
BITMAP
0000
0000
1C00
2200
4100
4700
4900
4900
4600
4000
4100
2200
1C00
0000
0000
0000
0000
ENDCHAR

STARTCHAR <unknown>
ENCODING 65
SWIDTH 42 0
DWIDTH 9 0
BBX 9 17 0 -5
BITMAP
0000
0800
0800
0800
1400
1400
1400
2200
2200
3E00
4100
4100
4100
0000
0000
0000
0000
ENDCHAR

STARTCHAR <unknown>
ENCODING 66
SWIDTH 42 0
DWIDTH 9 0
BBX 9 17 0 -5
BITMAP
0000
7800
4400
4200
4200
4200
7C00
4200
4100
4100
4100
4200
7C00
0000
0000
0000
0000
ENDCHAR

STARTCHAR <unknown>
ENCODING 67
SWIDTH 42 0
DWIDTH 9 0
BBX 9 17 0 -5
BITMAP
0000
1C00
2200
4100
4000
4000
4000
4000
4000
4000
4100
2200
1C00
0000
0000
0000
0000
ENDCHAR

STARTCHAR <unknown>
ENCODING 68
SWIDTH 42 0
DWIDTH 9 0
BBX 9 17 0 -5
BITMAP
0000
7C00
4200
4100
4100
4100
4100
4100
4100
4100
4100
4200
7C00
0000
0000
0000
0000
ENDCHAR

STARTCHAR <unknown>
ENCODING 69
SWIDTH 42 0
DWIDTH 9 0
BBX 9 17 0 -5
BITMAP
0000
7F00
4000
4000
4000
4000
7C00
4000
4000
4000
4000
4000
7F00
0000
0000
0000
0000
ENDCHAR

STARTCHAR <unknown>
ENCODING 70
SWIDTH 42 0
DWIDTH 9 0
BBX 9 17 0 -5
BITMAP
0000
7F00
4000
4000
4000
4000
7E00
4000
4000
4000
4000
4000
4000
0000
0000
0000
0000
ENDCHAR

STARTCHAR <unknown>
ENCODING 71
SWIDTH 42 0
DWIDTH 9 0
BBX 9 17 0 -5
BITMAP
0000
1C00
2200
4100
4000
4000
4000
4700
4100
4100
4100
2300
1D00
0000
0000
0000
0000
ENDCHAR

STARTCHAR <unknown>
ENCODING 72
SWIDTH 42 0
DWIDTH 9 0
BBX 9 17 0 -5
BITMAP
0000
4100
4100
4100
4100
4100
7F00
4100
4100
4100
4100
4100
4100
0000
0000
0000
0000
ENDCHAR

STARTCHAR <unknown>
ENCODING 73
SWIDTH 42 0
DWIDTH 9 0
BBX 9 17 0 -5
BITMAP
0000
3E00
0800
0800
0800
0800
0800
0800
0800
0800
0800
0800
3E00
0000
0000
0000
0000
ENDCHAR

STARTCHAR <unknown>
ENCODING 74
SWIDTH 42 0
DWIDTH 9 0
BBX 9 17 0 -5
BITMAP
0000
1F80
0200
0200
0200
0200
0200
0200
0200
0200
4200
2400
1800
0000
0000
0000
0000
ENDCHAR

STARTCHAR <unknown>
ENCODING 75
SWIDTH 42 0
DWIDTH 9 0
BBX 9 17 0 -5
BITMAP
0000
4100
4200
4400
4800
5800
6800
4400
4400
4200
4200
4100
4100
0000
0000
0000
0000
ENDCHAR

STARTCHAR <unknown>
ENCODING 76
SWIDTH 42 0
DWIDTH 9 0
BBX 9 17 0 -5
BITMAP
0000
4000
4000
4000
4000
4000
4000
4000
4000
4000
4000
4000
7F00
0000
0000
0000
0000
ENDCHAR

STARTCHAR <unknown>
ENCODING 77
SWIDTH 42 0
DWIDTH 9 0
BBX 9 17 0 -5
BITMAP
0000
4100
4100
6300
6300
5500
5500
4900
4900
4100
4100
4100
4100
0000
0000
0000
0000
ENDCHAR

STARTCHAR <unknown>
ENCODING 78
SWIDTH 42 0
DWIDTH 9 0
BBX 9 17 0 -5
BITMAP
0000
4100
6100
6100
5100
5100
4900
4900
4500
4500
4300
4300
4100
0000
0000
0000
0000
ENDCHAR

STARTCHAR <unknown>
ENCODING 79
SWIDTH 42 0
DWIDTH 9 0
BBX 9 17 0 -5
BITMAP
0000
1C00
2200
4100
4100
4100
4100
4100
4100
4100
4100
2200
1C00
0000
0000
0000
0000
ENDCHAR

STARTCHAR <unknown>
ENCODING 80
SWIDTH 42 0
DWIDTH 9 0
BBX 9 17 0 -5
BITMAP
0000
7C00
4200
4100
4100
4100
4200
7C00
4000
4000
4000
4000
4000
0000
0000
0000
0000
ENDCHAR

STARTCHAR <unknown>
ENCODING 81
SWIDTH 42 0
DWIDTH 9 0
BBX 9 17 0 -5
BITMAP
0000
1C00
2200
4100
4100
4100
4100
4100
4100
4100
4100
2200
1C00
0800
0400
0300
0000
ENDCHAR

STARTCHAR <unknown>
ENCODING 82
SWIDTH 42 0
DWIDTH 9 0
BBX 9 17 0 -5
BITMAP
0000
7C00
4200
4100
4100
4100
4200
7C00
4400
4200
4200
4100
4100
0000
0000
0000
0000
ENDCHAR

STARTCHAR <unknown>
ENCODING 83
SWIDTH 42 0
DWIDTH 9 0
BBX 9 17 0 -5
BITMAP
0000
1C00
2200
4100
4000
2000
1800
0600
0100
0100
4100
2200
1C00
0000
0000
0000
0000
ENDCHAR

STARTCHAR <unknown>
ENCODING 84
SWIDTH 42 0
DWIDTH 9 0
BBX 9 17 0 -5
BITMAP
0000
7F00
0800
0800
0800
0800
0800
0800
0800
0800
0800
0800
0800
0000
0000
0000
0000
ENDCHAR

STARTCHAR <unknown>
ENCODING 85
SWIDTH 42 0
DWIDTH 9 0
BBX 9 17 0 -5
BITMAP
0000
4100
4100
4100
4100
4100
4100
4100
4100
4100
4100
2200
1C00
0000
0000
0000
0000
ENDCHAR

STARTCHAR <unknown>
ENCODING 86
SWIDTH 42 0
DWIDTH 9 0
BBX 9 17 0 -5
BITMAP
0000
4100
4100
4100
2200
2200
2200
1400
1400
1400
0800
0800
0800
0000
0000
0000
0000
ENDCHAR

STARTCHAR <unknown>
ENCODING 87
SWIDTH 42 0
DWIDTH 9 0
BBX 9 17 0 -5
BITMAP
0000
4100
4100
4900
4900
4900
5500
5500
3600
2200
2200
2200
2200
0000
0000
0000
0000
ENDCHAR

STARTCHAR <unknown>
ENCODING 88
SWIDTH 42 0
DWIDTH 9 0
BBX 9 17 0 -5
BITMAP
0000
4100
2200
2200
1400
1400
0800
1400
1400
2200
2200
4100
4100
0000
0000
0000
0000
ENDCHAR

STARTCHAR <unknown>
ENCODING 89
SWIDTH 42 0
DWIDTH 9 0
BBX 9 17 0 -5
BITMAP
0000
4100
4100
2200
2200
1400
1400
0800
0800
0800
0800
0800
0800
0000
0000
0000
0000
ENDCHAR

STARTCHAR <unknown>
ENCODING 90
SWIDTH 42 0
DWIDTH 9 0
BBX 9 17 0 -5
BITMAP
0000
7F00
0200
0200
0400
0400
0800
0800
1000
1000
2000
2000
7F00
0000
0000
0000
0000
ENDCHAR

STARTCHAR <unknown>
ENCODING 91
SWIDTH 42 0
DWIDTH 9 0
BBX 9 17 0 -5
BITMAP
0000
1E00
1000
1000
1000
1000
1000
1000
1000
1000
1000
1000
1000
1000
1E00
0000
0000
ENDCHAR

STARTCHAR <unknown>
ENCODING 92
SWIDTH 42 0
DWIDTH 9 0
BBX 9 17 0 -5
BITMAP
0000
4000
2000
2000
1000
1000
0800
0800
0400
0400
0200
0200
0100
0100
0000
0000
0000
ENDCHAR

STARTCHAR <unknown>
ENCODING 93
SWIDTH 42 0
DWIDTH 9 0
BBX 9 17 0 -5
BITMAP
0000
3C00
0400
0400
0400
0400
0400
0400
0400
0400
0400
0400
0400
0400
3C00
0000
0000
ENDCHAR

STARTCHAR <unknown>
ENCODING 94
SWIDTH 42 0
DWIDTH 9 0
BBX 9 17 0 -5
BITMAP
0000
0000
0800
1400
2200
4100
0000
0000
0000
0000
0000
0000
0000
0000
0000
0000
0000
ENDCHAR

STARTCHAR <unknown>
ENCODING 95
SWIDTH 42 0
DWIDTH 9 0
BBX 9 17 0 -5
BITMAP
0000
0000
0000
0000
0000
0000
0000
0000
0000
0000
0000
0000
0000
7F80
0000
0000
0000
ENDCHAR

STARTCHAR <unknown>
ENCODING 96
SWIDTH 42 0
DWIDTH 9 0
BBX 9 17 0 -5
BITMAP
0000
1000
1000
0800
0400
0000
0000
0000
0000
0000
0000
0000
0000
0000
0000
0000
0000
ENDCHAR

STARTCHAR <unknown>
ENCODING 97
SWIDTH 42 0
DWIDTH 9 0
BBX 9 17 0 -5
BITMAP
0000
0000
0000
0000
0000
3C00
0200
0200
3E00
4200
4200
4200
3D00
0000
0000
0000
0000
ENDCHAR

STARTCHAR <unknown>
ENCODING 98
SWIDTH 42 0
DWIDTH 9 0
BBX 9 17 0 -5
BITMAP
0000
4000
4000
4000
4000
5C00
6200
4100
4100
4100
4100
6200
5C00
0000
0000
0000
0000
ENDCHAR

STARTCHAR <unknown>
ENCODING 99
SWIDTH 42 0
DWIDTH 9 0
BBX 9 17 0 -5
BITMAP
0000
0000
0000
0000
0000
1E00
2100
4000
4000
4000
4000
2100
1E00
0000
0000
0000
0000
ENDCHAR

STARTCHAR <unknown>
ENCODING 100
SWIDTH 42 0
DWIDTH 9 0
BBX 9 17 0 -5
BITMAP
0000
0100
0100
0100
0100
1D00
2300
4100
4100
4100
4100
2300
1D00
0000
0000
0000
0000
ENDCHAR

STARTCHAR <unknown>
ENCODING 101
SWIDTH 42 0
DWIDTH 9 0
BBX 9 17 0 -5
BITMAP
0000
0000
0000
0000
0000
1C00
2200
4100
7F00
4000
4000
2100
1E00
0000
0000
0000
0000
ENDCHAR

STARTCHAR <unknown>
ENCODING 102
SWIDTH 42 0
DWIDTH 9 0
BBX 9 17 0 -5
BITMAP
0000
0700
0880
0800
0800
3E00
0800
0800
0800
0800
0800
0800
0800
0000
0000
0000
0000
ENDCHAR

STARTCHAR <unknown>
ENCODING 103
SWIDTH 42 0
DWIDTH 9 0
BBX 9 17 0 -5
BITMAP
0000
0000
0000
0000
0000
1D00
2300
4100
4100
4100
4100
2300
1D00
0100
0100
2200
1C00
ENDCHAR

STARTCHAR <unknown>
ENCODING 104
SWIDTH 42 0
DWIDTH 9 0
BBX 9 17 0 -5
BITMAP
0000
4000
4000
4000
4000
5C00
6200
4100
4100
4100
4100
4100
4100
0000
0000
0000
0000
ENDCHAR

STARTCHAR <unknown>
ENCODING 105
SWIDTH 42 0
DWIDTH 9 0
BBX 9 17 0 -5
BITMAP
0000
0400
0400
0000
0000
1C00
0400
0400
0400
0400
0400
0400
0400
0000
0000
0000
0000
ENDCHAR

STARTCHAR <unknown>
ENCODING 106
SWIDTH 42 0
DWIDTH 9 0
BBX 9 17 0 -5
BITMAP
0000
0400
0400
0000
0000
1C00
0400
0400
0400
0400
0400
0400
0400
0400
0400
4400
3800
ENDCHAR

STARTCHAR <unknown>
ENCODING 107
SWIDTH 42 0
DWIDTH 9 0
BBX 9 17 0 -5
BITMAP
0000
4000
4000
4000
4000
4200
4400
4800
5000
6800
4400
4200
4100
0000
0000
0000
0000
ENDCHAR

STARTCHAR <unknown>
ENCODING 108
SWIDTH 42 0
DWIDTH 9 0
BBX 9 17 0 -5
BITMAP
0000
1C00
0400
0400
0400
0400
0400
0400
0400
0400
0400
0400
0400
0000
0000
0000
0000
ENDCHAR

STARTCHAR <unknown>
ENCODING 109
SWIDTH 42 0
DWIDTH 9 0
BBX 9 17 0 -5
BITMAP
0000
0000
0000
0000
0000
5200
6D00
4900
4900
4900
4900
4900
4900
0000
0000
0000
0000
ENDCHAR

STARTCHAR <unknown>
ENCODING 110
SWIDTH 42 0
DWIDTH 9 0
BBX 9 17 0 -5
BITMAP
0000
0000
0000
0000
0000
5C00
6200
4100
4100
4100
4100
4100
4100
0000
0000
0000
0000
ENDCHAR

STARTCHAR <unknown>
ENCODING 111
SWIDTH 42 0
DWIDTH 9 0
BBX 9 17 0 -5
BITMAP
0000
0000
0000
0000
0000
1C00
2200
4100
4100
4100
4100
2200
1C00
0000
0000
0000
0000
ENDCHAR

STARTCHAR <unknown>
ENCODING 112
SWIDTH 42 0
DWIDTH 9 0
BBX 9 17 0 -5
BITMAP
0000
0000
0000
0000
0000
5C00
6200
4100
4100
4100
4100
6200
5C00
4000
4000
4000
4000
ENDCHAR

STARTCHAR <unknown>
ENCODING 113
SWIDTH 42 0
DWIDTH 9 0
BBX 9 17 0 -5
BITMAP
0000
0000
0000
0000
0000
1D00
2300
4100
4100
4100
4100
2300
1D00
0100
0100
0100
0100
ENDCHAR

STARTCHAR <unknown>
ENCODING 114
SWIDTH 42 0
DWIDTH 9 0
BBX 9 17 0 -5
BITMAP
0000
0000
0000
0000
0000
4E00
5100
6000
4000
4000
4000
4000
4000
0000
0000
0000
0000
ENDCHAR

STARTCHAR <unknown>
ENCODING 115
SWIDTH 42 0
DWIDTH 9 0
BBX 9 17 0 -5
BITMAP
0000
0000
0000
0000
0000
1E00
2100
2000
1800
0600
0100
4100
3E00
0000
0000
0000
0000
ENDCHAR

STARTCHAR <unknown>
ENCODING 116
SWIDTH 42 0
DWIDTH 9 0
BBX 9 17 0 -5
BITMAP
0000
1000
1000
1000
1000
7E00
1000
1000
1000
1000
1000
1100
0E00
0000
0000
0000
0000
ENDCHAR

STARTCHAR <unknown>
ENCODING 117
SWIDTH 42 0
DWIDTH 9 0
BBX 9 17 0 -5
BITMAP
0000
0000
0000
0000
0000
4100
4100
4100
4100
4100
4100
2300
1D00
0000
0000
0000
0000
ENDCHAR

STARTCHAR <unknown>
ENCODING 118
SWIDTH 42 0
DWIDTH 9 0
BBX 9 17 0 -5
BITMAP
0000
0000
0000
0000
0000
4100
4100
2200
2200
1400
1400
0800
0800
0000
0000
0000
0000
ENDCHAR

STARTCHAR <unknown>
ENCODING 119
SWIDTH 42 0
DWIDTH 9 0
BBX 9 17 0 -5
BITMAP
0000
0000
0000
0000
0000
4100
4900
4900
4900
4900
4900
4900
3600
0000
0000
0000
0000
ENDCHAR

STARTCHAR <unknown>
ENCODING 120
SWIDTH 42 0
DWIDTH 9 0
BBX 9 17 0 -5
BITMAP
0000
0000
0000
0000
0000
4100
2200
1400
0800
1400
2200
4100
4100
0000
0000
0000
0000
ENDCHAR

STARTCHAR <unknown>
ENCODING 121
SWIDTH 42 0
DWIDTH 9 0
BBX 9 17 0 -5
BITMAP
0000
0000
0000
0000
0000
4100
4100
2100
2200
1200
1200
0C00
0400
0800
0800
1000
6000
ENDCHAR

STARTCHAR <unknown>
ENCODING 122
SWIDTH 42 0
DWIDTH 9 0
BBX 9 17 0 -5
BITMAP
0000
0000
0000
0000
0000
7F00
0200
0400
0800
1000
2000
4000
7F00
0000
0000
0000
0000
ENDCHAR

STARTCHAR <unknown>
ENCODING 123
SWIDTH 42 0
DWIDTH 9 0
BBX 9 17 0 -5
BITMAP
0000
0700
0800
0800
0800
0800
0800
3000
0800
0800
0800
0800
0800
0800
0700
0000
0000
ENDCHAR

STARTCHAR <unknown>
ENCODING 124
SWIDTH 42 0
DWIDTH 9 0
BBX 9 17 0 -5
BITMAP
0000
0800
0800
0800
0800
0800
0800
0000
0000
0800
0800
0800
0800
0800
0800
0000
0000
ENDCHAR

STARTCHAR <unknown>
ENCODING 125
SWIDTH 42 0
DWIDTH 9 0
BBX 9 17 0 -5
BITMAP
0000
3800
0400
0400
0400
0400
0400
0300
0400
0400
0400
0400
0400
0400
3800
0000
0000
ENDCHAR

STARTCHAR <unknown>
ENCODING 126
SWIDTH 42 0
DWIDTH 9 0
BBX 9 17 0 -5
BITMAP
0000
0000
3100
4900
4600
0000
0000
0000
0000
0000
0000
0000
0000
0000
0000
0000
0000
ENDCHAR

STARTCHAR <unknown>
ENCODING 160
SWIDTH 42 0
DWIDTH 9 0
BBX 9 17 0 -5
BITMAP
0000
0000
0000
0000
0000
0000
0000
0000
0000
0000
0000
0000
0000
0000
0000
0000
0000
ENDCHAR

STARTCHAR <unknown>
ENCODING 161
SWIDTH 42 0
DWIDTH 9 0
BBX 9 17 0 -5
BITMAP
0000
0800
0800
0000
0000
0800
0800
0800
0800
0800
0800
0800
0800
0000
0000
0000
0000
ENDCHAR

STARTCHAR <unknown>
ENCODING 162
SWIDTH 42 0
DWIDTH 9 0
BBX 9 17 0 -5
BITMAP
0000
0000
0000
0000
0800
1E00
2900
4800
4800
4800
4800
2900
1E00
0800
0000
0000
0000
ENDCHAR

STARTCHAR <unknown>
ENCODING 163
SWIDTH 42 0
DWIDTH 9 0
BBX 9 17 0 -5
BITMAP
0000
0000
0E00
1100
1000
1000
1000
7C00
1000
1000
1000
1000
3080
6F00
0000
0000
0000
ENDCHAR

STARTCHAR <unknown>
ENCODING 164
SWIDTH 42 0
DWIDTH 9 0
BBX 9 17 0 -5
BITMAP
0000
0000
0000
0000
4100
3E00
2200
2200
2200
3E00
4100
0000
0000
0000
0000
0000
0000
ENDCHAR

STARTCHAR <unknown>
ENCODING 165
SWIDTH 42 0
DWIDTH 9 0
BBX 9 17 0 -5
BITMAP
0000
0000
8080
4100
2200
1400
0800
0800
3E00
0800
0800
0800
0800
0000
0000
0000
0000
ENDCHAR

STARTCHAR <unknown>
ENCODING 166
SWIDTH 42 0
DWIDTH 9 0
BBX 9 17 0 -5
BITMAP
0000
0800
0800
0800
0800
0800
0800
0000
0000
0800
0800
0800
0800
0800
0800
0000
0000
ENDCHAR

STARTCHAR <unknown>
ENCODING 167
SWIDTH 42 0
DWIDTH 9 0
BBX 9 17 0 -5
BITMAP
0000
1C00
2200
2000
2000
1C00
2200
2200
1C00
0200
0200
2200
1C00
0000
0000
0000
0000
ENDCHAR

STARTCHAR <unknown>
ENCODING 168
SWIDTH 42 0
DWIDTH 9 0
BBX 9 17 0 -5
BITMAP
0000
0000
1200
1200
0000
0000
0000
0000
0000
0000
0000
0000
0000
0000
0000
0000
0000
ENDCHAR

STARTCHAR <unknown>
ENCODING 169
SWIDTH 42 0
DWIDTH 9 0
BBX 9 17 0 -5
BITMAP
0000
0000
1E00
2100
4C80
5280
5080
5280
4C80
2100
1E00
0000
0000
0000
0000
0000
0000
ENDCHAR

STARTCHAR <unknown>
ENCODING 170
SWIDTH 42 0
DWIDTH 9 0
BBX 9 17 0 -5
BITMAP
0000
0000
0E00
0100
0F00
1100
1100
0F00
0000
1F00
0000
0000
0000
0000
0000
0000
0000
ENDCHAR

STARTCHAR <unknown>
ENCODING 171
SWIDTH 42 0
DWIDTH 9 0
BBX 9 17 0 -5
BITMAP
0000
0000
0000
0000
0000
0000
0900
1200
2400
4800
2400
1200
0900
0000
0000
0000
0000
ENDCHAR

STARTCHAR <unknown>
ENCODING 172
SWIDTH 42 0
DWIDTH 9 0
BBX 9 17 0 -5
BITMAP
0000
0000
0000
7F00
0100
0100
0000
0000
0000
0000
0000
0000
0000
0000
0000
0000
0000
ENDCHAR

STARTCHAR <unknown>
ENCODING 173
SWIDTH 42 0
DWIDTH 9 0
BBX 9 17 0 -5
BITMAP
0000
0000
0000
0000
0000
0000
0000
3E00
0000
0000
0000
0000
0000
0000
0000
0000
0000
ENDCHAR

STARTCHAR <unknown>
ENCODING 174
SWIDTH 42 0
DWIDTH 9 0
BBX 9 17 0 -5
BITMAP
0000
0000
1E00
2100
5C80
5280
5C80
5480
5280
2100
1E00
0000
0000
0000
0000
0000
0000
ENDCHAR

STARTCHAR <unknown>
ENCODING 175
SWIDTH 42 0
DWIDTH 9 0
BBX 9 17 0 -5
BITMAP
0000
0000
0000
3E00
0000
0000
0000
0000
0000
0000
0000
0000
0000
0000
0000
0000
0000
ENDCHAR

STARTCHAR <unknown>
ENCODING 176
SWIDTH 42 0
DWIDTH 9 0
BBX 9 17 0 -5
BITMAP
0000
0000
0C00
1200
0C00
0000
0000
0000
0000
0000
0000
0000
0000
0000
0000
0000
0000
ENDCHAR

STARTCHAR <unknown>
ENCODING 177
SWIDTH 42 0
DWIDTH 9 0
BBX 9 17 0 -5
BITMAP
0000
0000
0000
0000
0800
0800
0800
7F00
0800
0800
0800
0000
7F00
0000
0000
0000
0000
ENDCHAR

STARTCHAR <unknown>
ENCODING 178
SWIDTH 42 0
DWIDTH 9 0
BBX 9 17 0 -5
BITMAP
0000
0000
0E00
1100
0100
0200
0400
0800
1000
1F00
0000
0000
0000
0000
0000
0000
0000
ENDCHAR

STARTCHAR <unknown>
ENCODING 179
SWIDTH 42 0
DWIDTH 9 0
BBX 9 17 0 -5
BITMAP
0000
0000
0E00
1100
0100
0600
0100
0100
1100
0E00
0000
0000
0000
0000
0000
0000
0000
ENDCHAR

STARTCHAR <unknown>
ENCODING 180
SWIDTH 42 0
DWIDTH 9 0
BBX 9 17 0 -5
BITMAP
0000
0600
0400
0800
0000
0000
0000
0000
0000
0000
0000
0000
0000
0000
0000
0000
0000
ENDCHAR

STARTCHAR <unknown>
ENCODING 181
SWIDTH 42 0
DWIDTH 9 0
BBX 9 17 0 -5
BITMAP
0000
0000
0000
0000
0000
0000
2100
2100
2100
2100
2100
3300
2D80
2000
4000
0000
0000
ENDCHAR

STARTCHAR <unknown>
ENCODING 182
SWIDTH 42 0
DWIDTH 9 0
BBX 9 17 0 -5
BITMAP
0000
1F80
2900
4900
4900
6900
3900
0900
0900
0900
0900
0900
1980
0000
0000
0000
0000
ENDCHAR

STARTCHAR <unknown>
ENCODING 183
SWIDTH 42 0
DWIDTH 9 0
BBX 9 17 0 -5
BITMAP
0000
0000
0000
0000
0000
0000
0000
0C00
0C00
0000
0000
0000
0000
0000
0000
0000
0000
ENDCHAR

STARTCHAR <unknown>
ENCODING 184
SWIDTH 42 0
DWIDTH 9 0
BBX 9 17 0 -5
BITMAP
0000
0000
0000
0000
0000
0000
0000
0000
0000
0000
0000
0000
0000
0800
0400
1C00
0000
ENDCHAR

STARTCHAR <unknown>
ENCODING 185
SWIDTH 42 0
DWIDTH 9 0
BBX 9 17 0 -5
BITMAP
0000
0000
0400
0C00
1400
0400
0400
0400
0400
1F00
0000
0000
0000
0000
0000
0000
0000
ENDCHAR

STARTCHAR <unknown>
ENCODING 186
SWIDTH 42 0
DWIDTH 9 0
BBX 9 17 0 -5
BITMAP
0000
0000
0E00
1100
1100
1100
1100
0E00
0000
1F00
0000
0000
0000
0000
0000
0000
0000
ENDCHAR

STARTCHAR <unknown>
ENCODING 187
SWIDTH 42 0
DWIDTH 9 0
BBX 9 17 0 -5
BITMAP
0000
0000
0000
0000
0000
0000
4800
2400
1200
0900
1200
2400
4800
0000
0000
0000
0000
ENDCHAR

STARTCHAR <unknown>
ENCODING 188
SWIDTH 42 0
DWIDTH 9 0
BBX 9 17 0 -5
BITMAP
0000
0000
2000
6000
2100
2200
2500
7B00
1500
2900
4F80
0100
0100
0000
0000
0000
0000
ENDCHAR

STARTCHAR <unknown>
ENCODING 189
SWIDTH 42 0
DWIDTH 9 0
BBX 9 17 0 -5
BITMAP
0000
0000
2000
6000
2100
2200
2400
7B00
1480
2080
4300
0400
0780
0000
0000
0000
0000
ENDCHAR

STARTCHAR <unknown>
ENCODING 190
SWIDTH 42 0
DWIDTH 9 0
BBX 9 17 0 -5
BITMAP
0000
0000
6000
9000
2100
1200
9500
6B00
1500
2900
4F80
0100
0100
0000
0000
0000
0000
ENDCHAR

STARTCHAR <unknown>
ENCODING 191
SWIDTH 42 0
DWIDTH 9 0
BBX 9 17 0 -5
BITMAP
0000
0800
0800
0000
0000
0800
0800
1000
2000
4100
4100
2200
1C00
0000
0000
0000
0000
ENDCHAR

STARTCHAR <unknown>
ENCODING 192
SWIDTH 42 0
DWIDTH 9 0
BBX 9 17 0 -5
BITMAP
3000
1800
0000
0800
0800
1400
1400
2200
2200
3E00
4100
4100
4100
0000
0000
0000
0000
ENDCHAR

STARTCHAR <unknown>
ENCODING 193
SWIDTH 42 0
DWIDTH 9 0
BBX 9 17 0 -5
BITMAP
0600
0C00
0000
0800
0800
1400
1400
2200
2200
3E00
4100
4100
4100
0000
0000
0000
0000
ENDCHAR

STARTCHAR <unknown>
ENCODING 194
SWIDTH 42 0
DWIDTH 9 0
BBX 9 17 0 -5
BITMAP
0800
1400
2200
0800
0800
1400
1400
2200
2200
3E00
4100
4100
4100
0000
0000
0000
0000
ENDCHAR

STARTCHAR <unknown>
ENCODING 195
SWIDTH 42 0
DWIDTH 9 0
BBX 9 17 0 -5
BITMAP
1A00
2C00
0000
0800
0800
1400
1400
2200
2200
3E00
4100
4100
4100
0000
0000
0000
0000
ENDCHAR

STARTCHAR <unknown>
ENCODING 196
SWIDTH 42 0
DWIDTH 9 0
BBX 9 17 0 -5
BITMAP
2200
2200
0000
0800
0800
1400
1400
2200
2200
3E00
4100
4100
4100
0000
0000
0000
0000
ENDCHAR

STARTCHAR <unknown>
ENCODING 197
SWIDTH 42 0
DWIDTH 9 0
BBX 9 17 0 -5
BITMAP
0800
1400
1400
0800
0800
1400
1400
2200
2200
3E00
4100
4100
4100
0000
0000
0000
0000
ENDCHAR

STARTCHAR <unknown>
ENCODING 198
SWIDTH 42 0
DWIDTH 9 0
BBX 9 17 0 -5
BITMAP
0000
0F80
0C00
1400
1400
1400
2700
2400
3C00
4400
4400
4400
4780
0000
0000
0000
0000
ENDCHAR

STARTCHAR <unknown>
ENCODING 199
SWIDTH 42 0
DWIDTH 9 0
BBX 9 17 0 -5
BITMAP
0000
1C00
2200
4100
4000
4000
4000
4000
4000
4000
4100
2200
1C00
0800
0400
1C00
0000
ENDCHAR

STARTCHAR <unknown>
ENCODING 200
SWIDTH 42 0
DWIDTH 9 0
BBX 9 17 0 -5
BITMAP
1800
0C00
0000
7F00
4000
4000
4000
7E00
4000
4000
4000
4000
7F00
0000
0000
0000
0000
ENDCHAR

STARTCHAR <unknown>
ENCODING 201
SWIDTH 42 0
DWIDTH 9 0
BBX 9 17 0 -5
BITMAP
0600
0C00
0000
7F00
4000
4000
4000
7E00
4000
4000
4000
4000
7F00
0000
0000
0000
0000
ENDCHAR

STARTCHAR <unknown>
ENCODING 202
SWIDTH 42 0
DWIDTH 9 0
BBX 9 17 0 -5
BITMAP
0800
1400
0000
7F00
4000
4000
4000
7E00
4000
4000
4000
4000
7F00
0000
0000
0000
0000
ENDCHAR

STARTCHAR <unknown>
ENCODING 203
SWIDTH 42 0
DWIDTH 9 0
BBX 9 17 0 -5
BITMAP
2200
2200
0000
7F00
4000
4000
4000
7E00
4000
4000
4000
4000
7F00
0000
0000
0000
0000
ENDCHAR

STARTCHAR <unknown>
ENCODING 204
SWIDTH 42 0
DWIDTH 9 0
BBX 9 17 0 -5
BITMAP
3000
1800
0000
3E00
0800
0800
0800
0800
0800
0800
0800
0800
3E00
0000
0000
0000
0000
ENDCHAR

STARTCHAR <unknown>
ENCODING 205
SWIDTH 42 0
DWIDTH 9 0
BBX 9 17 0 -5
BITMAP
0600
0C00
0000
3E00
0800
0800
0800
0800
0800
0800
0800
0800
3E00
0000
0000
0000
0000
ENDCHAR

STARTCHAR <unknown>
ENCODING 206
SWIDTH 42 0
DWIDTH 9 0
BBX 9 17 0 -5
BITMAP
0800
1400
0000
3E00
0800
0800
0800
0800
0800
0800
0800
0800
3E00
0000
0000
0000
0000
ENDCHAR

STARTCHAR <unknown>
ENCODING 207
SWIDTH 42 0
DWIDTH 9 0
BBX 9 17 0 -5
BITMAP
2200
2200
0000
3E00
0800
0800
0800
0800
0800
0800
0800
0800
3E00
0000
0000
0000
0000
ENDCHAR

STARTCHAR <unknown>
ENCODING 208
SWIDTH 42 0
DWIDTH 9 0
BBX 9 17 0 -5
BITMAP
0000
3C00
2200
2100
2100
2100
7100
2100
2100
2100
2100
2200
3C00
0000
0000
0000
0000
ENDCHAR

STARTCHAR <unknown>
ENCODING 209
SWIDTH 42 0
DWIDTH 9 0
BBX 9 17 0 -5
BITMAP
1900
2600
0000
4100
6100
5100
5100
4900
4900
4500
4500
4300
4100
0000
0000
0000
0000
ENDCHAR

STARTCHAR <unknown>
ENCODING 210
SWIDTH 42 0
DWIDTH 9 0
BBX 9 17 0 -5
BITMAP
1800
0C00
0000
1C00
2200
4100
4100
4100
4100
4100
4100
2200
1C00
0000
0000
0000
0000
ENDCHAR

STARTCHAR <unknown>
ENCODING 211
SWIDTH 42 0
DWIDTH 9 0
BBX 9 17 0 -5
BITMAP
0600
0C00
0000
1C00
2200
4100
4100
4100
4100
4100
4100
2200
1C00
0000
0000
0000
0000
ENDCHAR

STARTCHAR <unknown>
ENCODING 212
SWIDTH 42 0
DWIDTH 9 0
BBX 9 17 0 -5
BITMAP
0800
1400
0000
1C00
2200
4100
4100
4100
4100
4100
4100
2200
1C00
0000
0000
0000
0000
ENDCHAR

STARTCHAR <unknown>
ENCODING 213
SWIDTH 42 0
DWIDTH 9 0
BBX 9 17 0 -5
BITMAP
0D00
1600
0000
1C00
2200
4100
4100
4100
4100
4100
4100
2200
1C00
0000
0000
0000
0000
ENDCHAR

STARTCHAR <unknown>
ENCODING 214
SWIDTH 42 0
DWIDTH 9 0
BBX 9 17 0 -5
BITMAP
2200
2200
0000
1C00
2200
4100
4100
4100
4100
4100
4100
2200
1C00
0000
0000
0000
0000
ENDCHAR

STARTCHAR <unknown>
ENCODING 215
SWIDTH 42 0
DWIDTH 9 0
BBX 9 17 0 -5
BITMAP
0000
0000
0000
0000
4100
2200
1400
0800
1400
2200
4100
0000
0000
0000
0000
0000
0000
ENDCHAR

STARTCHAR <unknown>
ENCODING 216
SWIDTH 42 0
DWIDTH 9 0
BBX 9 17 0 -5
BITMAP
0000
0200
1E00
2300
4500
4500
4900
4900
4900
5100
5100
6200
3C00
2000
0000
0000
0000
ENDCHAR

STARTCHAR <unknown>
ENCODING 217
SWIDTH 42 0
DWIDTH 9 0
BBX 9 17 0 -5
BITMAP
3000
1800
0000
4100
4100
4100
4100
4100
4100
4100
4100
2200
1C00
0000
0000
0000
0000
ENDCHAR

STARTCHAR <unknown>
ENCODING 218
SWIDTH 42 0
DWIDTH 9 0
BBX 9 17 0 -5
BITMAP
0600
0C00
0000
4100
4100
4100
4100
4100
4100
4100
4100
2200
1C00
0000
0000
0000
0000
ENDCHAR

STARTCHAR <unknown>
ENCODING 219
SWIDTH 42 0
DWIDTH 9 0
BBX 9 17 0 -5
BITMAP
0800
1400
0000
4100
4100
4100
4100
4100
4100
4100
4100
2200
1C00
0000
0000
0000
0000
ENDCHAR

STARTCHAR <unknown>
ENCODING 220
SWIDTH 42 0
DWIDTH 9 0
BBX 9 17 0 -5
BITMAP
2200
2200
0000
4100
4100
4100
4100
4100
4100
4100
4100
2200
1C00
0000
0000
0000
0000
ENDCHAR

STARTCHAR <unknown>
ENCODING 221
SWIDTH 42 0
DWIDTH 9 0
BBX 9 17 0 -5
BITMAP
0600
0C00
4100
4100
2200
2200
1400
1400
0800
0800
0800
0800
0800
0000
0000
0000
0000
ENDCHAR

STARTCHAR <unknown>
ENCODING 222
SWIDTH 42 0
DWIDTH 9 0
BBX 9 17 0 -5
BITMAP
7000
2000
3E00
2100
2080
2080
2100
3E00
2000
2000
2000
2000
7000
0000
0000
0000
0000
ENDCHAR

STARTCHAR <unknown>
ENCODING 223
SWIDTH 42 0
DWIDTH 9 0
BBX 9 17 0 -5
BITMAP
0000
1800
2400
2200
4200
4200
4C00
4200
4100
4100
4100
4200
4C00
0000
0000
0000
0000
ENDCHAR

STARTCHAR <unknown>
ENCODING 224
SWIDTH 42 0
DWIDTH 9 0
BBX 9 17 0 -5
BITMAP
0000
3000
1000
0800
0000
3C00
0200
0200
3E00
4200
4200
4200
3D00
0000
0000
0000
0000
ENDCHAR

STARTCHAR <unknown>
ENCODING 225
SWIDTH 42 0
DWIDTH 9 0
BBX 9 17 0 -5
BITMAP
0000
0600
0400
0800
0000
3C00
0200
0200
3E00
4200
4200
4200
3D00
0000
0000
0000
0000
ENDCHAR

STARTCHAR <unknown>
ENCODING 226
SWIDTH 42 0
DWIDTH 9 0
BBX 9 17 0 -5
BITMAP
0000
0800
1400
2200
0000
3C00
0200
0200
3E00
4200
4200
4200
3D00
0000
0000
0000
0000
ENDCHAR

STARTCHAR <unknown>
ENCODING 227
SWIDTH 42 0
DWIDTH 9 0
BBX 9 17 0 -5
BITMAP
0000
1A00
2C00
0000
0000
3C00
0200
0200
3E00
4200
4200
4200
3D00
0000
0000
0000
0000
ENDCHAR

STARTCHAR <unknown>
ENCODING 228
SWIDTH 42 0
DWIDTH 9 0
BBX 9 17 0 -5
BITMAP
0000
2200
2200
0000
0000
3C00
0200
0200
3E00
4200
4200
4200
3D00
0000
0000
0000
0000
ENDCHAR

STARTCHAR <unknown>
ENCODING 229
SWIDTH 42 0
DWIDTH 9 0
BBX 9 17 0 -5
BITMAP
0000
0C00
1200
0C00
0000
3C00
0200
0200
3E00
4200
4200
4200
3D00
0000
0000
0000
0000
ENDCHAR

STARTCHAR <unknown>
ENCODING 230
SWIDTH 42 0
DWIDTH 9 0
BBX 9 17 0 -5
BITMAP
0000
0000
0000
0000
0000
7700
0880
0880
7F80
8800
8800
8880
7F00
0000
0000
0000
0000
ENDCHAR

STARTCHAR <unknown>
ENCODING 231
SWIDTH 42 0
DWIDTH 9 0
BBX 9 17 0 -5
BITMAP
0000
0000
0000
0000
0000
1E00
2100
4000
4000
4000
4000
2100
1E00
0800
0400
1C00
0000
ENDCHAR

STARTCHAR <unknown>
ENCODING 232
SWIDTH 42 0
DWIDTH 9 0
BBX 9 17 0 -5
BITMAP
0000
1800
0800
0400
0000
1E00
2100
4100
7F00
4000
4000
2100
1E00
0000
0000
0000
0000
ENDCHAR

STARTCHAR <unknown>
ENCODING 233
SWIDTH 42 0
DWIDTH 9 0
BBX 9 17 0 -5
BITMAP
0000
0600
0400
0800
0000
1E00
2100
4100
7F00
4000
4000
2100
1E00
0000
0000
0000
0000
ENDCHAR

STARTCHAR <unknown>
ENCODING 234
SWIDTH 42 0
DWIDTH 9 0
BBX 9 17 0 -5
BITMAP
0000
0800
1400
2200
0000
1E00
2100
4100
7F00
4000
4000
2100
1E00
0000
0000
0000
0000
ENDCHAR

STARTCHAR <unknown>
ENCODING 235
SWIDTH 42 0
DWIDTH 9 0
BBX 9 17 0 -5
BITMAP
0000
2200
2200
0000
0000
1E00
2100
4100
7F00
4000
4000
2100
1E00
0000
0000
0000
0000
ENDCHAR

STARTCHAR <unknown>
ENCODING 236
SWIDTH 42 0
DWIDTH 9 0
BBX 9 17 0 -5
BITMAP
0000
1800
0800
0400
0000
1C00
0400
0400
0400
0400
0400
0400
0400
0000
0000
0000
0000
ENDCHAR

STARTCHAR <unknown>
ENCODING 237
SWIDTH 42 0
DWIDTH 9 0
BBX 9 17 0 -5
BITMAP
0000
0600
0400
0800
0000
1C00
0400
0400
0400
0400
0400
0400
0400
0000
0000
0000
0000
ENDCHAR

STARTCHAR <unknown>
ENCODING 238
SWIDTH 42 0
DWIDTH 9 0
BBX 9 17 0 -5
BITMAP
0000
0800
1400
2200
0000
1C00
0400
0400
0400
0400
0400
0400
0400
0000
0000
0000
0000
ENDCHAR

STARTCHAR <unknown>
ENCODING 239
SWIDTH 42 0
DWIDTH 9 0
BBX 9 17 0 -5
BITMAP
0000
2200
2200
0000
0000
1C00
0400
0400
0400
0400
0400
0400
0400
0000
0000
0000
0000
ENDCHAR

STARTCHAR <unknown>
ENCODING 240
SWIDTH 42 0
DWIDTH 9 0
BBX 9 17 0 -5
BITMAP
0000
3200
0C00
0C00
1200
0200
0100
3D00
4300
4100
4100
4100
3E00
0000
0000
0000
0000
ENDCHAR

STARTCHAR <unknown>
ENCODING 241
SWIDTH 42 0
DWIDTH 9 0
BBX 9 17 0 -5
BITMAP
0000
3200
4C00
0000
0000
5C00
6200
4100
4100
4100
4100
4100
4100
0000
0000
0000
0000
ENDCHAR

STARTCHAR <unknown>
ENCODING 242
SWIDTH 42 0
DWIDTH 9 0
BBX 9 17 0 -5
BITMAP
0000
1800
0800
0400
0000
1C00
2200
4100
4100
4100
4100
2200
1C00
0000
0000
0000
0000
ENDCHAR

STARTCHAR <unknown>
ENCODING 243
SWIDTH 42 0
DWIDTH 9 0
BBX 9 17 0 -5
BITMAP
0000
0600
0400
0800
0000
1C00
2200
4100
4100
4100
4100
2200
1C00
0000
0000
0000
0000
ENDCHAR

STARTCHAR <unknown>
ENCODING 244
SWIDTH 42 0
DWIDTH 9 0
BBX 9 17 0 -5
BITMAP
0000
0800
1400
2200
0000
1C00
2200
4100
4100
4100
4100
2200
1C00
0000
0000
0000
0000
ENDCHAR

STARTCHAR <unknown>
ENCODING 245
SWIDTH 42 0
DWIDTH 9 0
BBX 9 17 0 -5
BITMAP
0000
1900
2600
0000
0000
1C00
2200
4100
4100
4100
4100
2200
1C00
0000
0000
0000
0000
ENDCHAR

STARTCHAR <unknown>
ENCODING 246
SWIDTH 42 0
DWIDTH 9 0
BBX 9 17 0 -5
BITMAP
0000
2200
2200
0000
0000
1C00
2200
4100
4100
4100
4100
2200
1C00
0000
0000
0000
0000
ENDCHAR

STARTCHAR <unknown>
ENCODING 247
SWIDTH 42 0
DWIDTH 9 0
BBX 9 17 0 -5
BITMAP
0000
0000
0000
0800
0800
0000
0000
7F00
0000
0000
0800
0800
0000
0000
0000
0000
0000
ENDCHAR

STARTCHAR <unknown>
ENCODING 248
SWIDTH 42 0
DWIDTH 9 0
BBX 9 17 0 -5
BITMAP
0000
0000
0000
0000
0200
1E00
2600
4500
4900
4900
5100
3200
3C00
2000
0000
0000
0000
ENDCHAR

STARTCHAR <unknown>
ENCODING 249
SWIDTH 42 0
DWIDTH 9 0
BBX 9 17 0 -5
BITMAP
0000
1800
0800
0400
0000
4100
4100
4100
4100
4100
4100
2300
1D00
0000
0000
0000
0000
ENDCHAR

STARTCHAR <unknown>
ENCODING 250
SWIDTH 42 0
DWIDTH 9 0
BBX 9 17 0 -5
BITMAP
0000
0600
0400
0800
0000
4100
4100
4100
4100
4100
4100
2300
1D00
0000
0000
0000
0000
ENDCHAR

STARTCHAR <unknown>
ENCODING 251
SWIDTH 42 0
DWIDTH 9 0
BBX 9 17 0 -5
BITMAP
0000
0800
1400
2200
0000
4100
4100
4100
4100
4100
4100
2300
1D00
0000
0000
0000
0000
ENDCHAR

STARTCHAR <unknown>
ENCODING 252
SWIDTH 42 0
DWIDTH 9 0
BBX 9 17 0 -5
BITMAP
0000
2200
2200
0000
0000
4100
4100
4100
4100
4100
4100
2300
1D00
0000
0000
0000
0000
ENDCHAR

STARTCHAR <unknown>
ENCODING 253
SWIDTH 42 0
DWIDTH 9 0
BBX 9 17 0 -5
BITMAP
0000
0600
0400
0800
0000
4100
4100
4100
4100
4100
4100
2300
1D00
0100
0100
2200
1C00
ENDCHAR

STARTCHAR <unknown>
ENCODING 254
SWIDTH 42 0
DWIDTH 9 0
BBX 9 17 0 -5
BITMAP
0000
0000
0000
0000
6000
2000
2E00
3100
2080
2080
2080
3100
2E00
2000
2000
2000
7000
ENDCHAR

STARTCHAR <unknown>
ENCODING 255
SWIDTH 42 0
DWIDTH 9 0
BBX 9 17 0 -5
BITMAP
0000
2200
2200
0000
0000
4100
4100
4100
4100
4100
4100
2300
1D00
0100
0100
2200
1C00
ENDCHAR
ENDFONT
